<?xml version="1.0" encoding="utf-8"?>
<!-- Generator: Adobe Illustrator 16.0.0, SVG Export Plug-In . SVG Version: 6.00 Build 0)  -->
<!DOCTYPE svg PUBLIC "-//W3C//DTD SVG 1.1//EN" "http://www.w3.org/Graphics/SVG/1.1/DTD/svg11.dtd">
<svg version="1.1" id="Layer_1" xmlns="http://www.w3.org/2000/svg" xmlns:xlink="http://www.w3.org/1999/xlink" x="0px" y="0px"
	 width="50px" height="50px" viewBox="0 0 50 50" enable-background="new 0 0 50 50" xml:space="preserve">
<g>
	<path fill="#D6FDFF" d="M31.32,31.58c-1.809,2.271-4.271,3.405-7.389,3.405c-3.001,0-5.33-0.923-6.983-2.77
		c-1.655-1.849-2.482-4.233-2.482-7.158c0-1.271,0.249-2.49,0.75-3.665c0.5-1.174,1.202-2.202,2.107-3.088
		c0.904-0.885,1.992-1.588,3.262-2.107c1.27-0.52,2.674-0.779,4.213-0.779c1.27,0,2.375,0.165,3.318,0.491
		c0.943,0.327,1.856,0.818,2.743,1.472l1.385-1.385l2.021,0.404v10.792c0,1.155,0.239,2.021,0.721,2.598
		c0.481,0.577,1.164,0.867,2.049,0.867c1.154,0,1.991-0.578,2.51-1.732c0.52-1.155,0.779-2.714,0.779-4.676
		c0-2.192-0.375-4.145-1.125-5.857c-0.75-1.712-1.78-3.155-3.088-4.329s-2.848-2.068-4.618-2.685
		c-1.77-0.614-3.675-0.924-5.714-0.924c-2.232,0-4.32,0.328-6.263,0.982c-1.943,0.654-3.636,1.615-5.08,2.886
		c-1.443,1.27-2.578,2.81-3.405,4.617c-0.828,1.81-1.241,3.866-1.241,6.176c0,2.271,0.365,4.31,1.097,6.118
		c0.73,1.81,1.75,3.329,3.06,4.56c1.307,1.232,2.876,2.175,4.704,2.828c1.827,0.655,3.818,0.982,5.974,0.982
		c2.461,0,4.704-0.212,6.724-0.636c2.021-0.423,3.858-1.097,5.513-2.02l1.385,4.04c-2.041,0.885-4.156,1.567-6.349,2.049
		c-2.193,0.48-4.618,0.722-7.272,0.722c-2.656,0-5.176-0.396-7.562-1.184c-2.386-0.79-4.473-1.962-6.263-3.521
		c-1.789-1.559-3.203-3.502-4.242-5.83C5.519,30.897,5,28.194,5,25.115c0-2.847,0.538-5.435,1.616-7.763
		c1.077-2.328,2.559-4.31,4.444-5.945s4.089-2.905,6.609-3.81c2.52-0.903,5.224-1.356,8.11-1.356c2.577,0,5.03,0.414,7.359,1.24
		c2.328,0.828,4.367,2.012,6.119,3.551c1.75,1.539,3.146,3.425,4.185,5.656S45,21.441,45,24.249c0,3.117-0.721,5.57-2.165,7.359
		c-1.443,1.79-3.492,2.685-6.147,2.685C34.109,34.293,32.321,33.389,31.32,31.58z M30.05,20.613
		c-0.731-0.577-1.491-0.961-2.28-1.154c-0.789-0.192-1.684-0.289-2.684-0.289c-1.925,0-3.406,0.529-4.444,1.588
		c-1.039,1.059-1.559,2.51-1.559,4.357c0,1.847,0.433,3.281,1.299,4.301c0.866,1.019,2.165,1.529,3.896,1.529
		c2.462,0,4.387-0.866,5.772-2.598V20.613z"/>
</g>
</svg>
