<svg xmlns="http://www.w3.org/2000/svg" version="1.1" x="0" y="0" width="50" height="50" viewBox="0" enable-background="new 0 0 50 50" xml:space="preserve"><path fill="#D6FDFF" d="M14.1 44.1V18.3H5.5v25.8H14.1zM9.8 14.8c3 0 4.9-2 4.9-4.5c-0.1-2.5-1.9-4.5-4.8-4.5C6.9 5.9 5 7.8 5 10.3c0 2.5 1.9 4.5 4.7 4.5H9.8L9.8 14.8zM18.8 44.1H27.4V29.7c0-0.8 0.1-1.5 0.3-2.1c0.6-1.5 2-3.1 4.4-3.1c3.1 0 4.3 2.4 4.3 5.8v13.8H45V29.3c0-7.9-4.2-11.6-9.9-11.6c-4.6 0-6.7 2.6-7.8 4.3H27.4V18.3h-8.6C18.9 20.7 18.8 44.1 18.8 44.1L18.8 44.1z"/></svg>