<?xml version="1.0" encoding="utf-8"?>
<!-- Generator: Adobe Illustrator 16.0.0, SVG Export Plug-In . SVG Version: 6.00 Build 0)  -->
<!DOCTYPE svg PUBLIC "-//W3C//DTD SVG 1.1//EN" "http://www.w3.org/Graphics/SVG/1.1/DTD/svg11.dtd">
<svg version="1.1" id="Layer_1" xmlns="http://www.w3.org/2000/svg" xmlns:xlink="http://www.w3.org/1999/xlink" x="0px" y="0px"
	 width="50px" height="50px" viewBox="0 0 50 50" enable-background="new 0 0 50 50" xml:space="preserve">
<g>
	<path fill="#D6FDFF" d="M25.399,43.07c-0.091,0-1.665-0.002-1.756-0.002c-2.459-0.025-4.8-0.41-7.017-1.141
		c-2.3-0.762-4.311-1.891-6.036-3.395c-1.725-1.5-3.088-3.371-4.09-5.619C5.5,30.672,5,28.066,5,25.099
		c0-2.744,0.519-5.238,1.558-7.483c1.038-2.242,2.466-4.153,4.284-5.729c1.817-1.576,3.94-2.801,6.369-3.672
		c2.429-0.871,5.035-1.307,7.817-1.307v4.061c-2.152,0-4.165,0.316-6.036,0.945c-1.874,0.631-3.505,1.558-4.896,2.784
		c-1.39,1.223-2.485,2.706-3.283,4.449c-0.797,1.743-1.196,3.728-1.196,5.953c0,2.19,0.353,4.153,1.057,5.897
		c0.705,1.742,1.687,3.209,2.949,4.396c1.261,1.184,2.771,2.096,4.533,2.727c1.686,0.602,3.514,0.916,5.489,0.943
		c0.09,0,1.664,0,1.754,0"/>
	<path fill="#D6FDFF" d="M25.343,39.086c0.12,0,0.983,0,1.102-0.002c1.939-0.035,3.739-0.348,5.397-0.941
		c1.763-0.633,3.272-1.541,4.534-2.727c1.261-1.189,2.244-2.652,2.948-4.396c0.705-1.744,1.057-3.707,1.057-5.896
		c0-2.226-0.398-4.211-1.196-5.954c-0.798-1.743-1.893-3.226-3.282-4.449c-1.392-1.226-3.023-2.153-4.896-2.783
		c-1.872-0.63-3.884-0.945-6.036-0.945V6.932c2.781,0,5.388,0.437,7.815,1.307c2.43,0.873,4.553,2.097,6.371,3.672
		c1.817,1.576,3.245,3.487,4.283,5.729C44.48,19.885,45,22.379,45,25.124c0,2.964-0.501,5.571-1.502,7.815
		c-1.002,2.246-2.364,4.117-4.09,5.617c-1.723,1.504-3.735,2.637-6.035,3.395c-2.195,0.725-4.51,1.105-6.941,1.139
		c-0.115,0.002-0.973,0.002-1.088,0.002"/>
</g>
<path fill="#D6FDFF" d="M25,12.423c0.992,0,1.76,0.285,2.305,0.853c0.544,0.568,0.816,1.251,0.816,2.049
	c0,0.768-0.272,1.443-0.816,2.026c-0.545,0.583-1.313,0.875-2.305,0.875c-0.993,0-1.761-0.292-2.305-0.875
	c-0.545-0.583-0.816-1.259-0.816-2.026c0-0.798,0.271-1.48,0.816-2.049C23.239,12.708,24.007,12.423,25,12.423z M27.208,20.428
	v16.677h-4.465V20.428H27.208z"/>
</svg>
