<svg xmlns="http://www.w3.org/2000/svg" version="1.1" x="0px" y="0px" width="249px" height="140px" viewBox="0 0 249 140" enable-background="new 0 0 249 140" xml:space="preserve"><g display="none"><image display="inline" overflow="visible" width="726" height="376" transform="matrix(0.3723 0 0 0.3723 -9.8823 0)"/></g><path fill="#6B7F7F" d="M210.125 103.5c0 3.3-2.7 6-6 6H76.875c-3.3 0-6-2.7-6-6V20c0-3.3 2.7-6 6-6h127.25c3.3 0 6 2.7 6 6V103.5z"/><rect x="78.625" y="21.25" fill="#D6FDFF" width="123.75" height="70.75"/><rect x="125.125" y="109" fill="#6B7F7F" width="31.25" height="16.5"/><polygon fill="#6B7F7F" points="126.938,125.5 126.938,118.896 110.434,125.5  "/><polygon fill="#6B7F7F" points="154.875,125.5 154.875,118.896 171.379,125.5  "/><rect x="82.388" y="24.68" fill="#6CC5C9" width="55.94" height="10.5"/><rect x="82.388" y="42.68" fill="#6CC5C9" width="25.803" height="2"/><rect x="82.388" y="48.922" fill="#6CC5C9" width="25.803" height="2"/><rect x="82.388" y="55.164" fill="#6CC5C9" width="25.803" height="2"/><rect x="112.877" y="42.68" fill="#6CC5C9" width="25.803" height="14.484"/><rect x="143.68" y="24.816" fill="#6CC5C9" width="55" height="5.25"/><rect x="143.68" y="42.316" fill="#6CC5C9" width="55" height="2"/><rect x="143.68" y="48.559" fill="#6CC5C9" width="55" height="2"/><rect x="143.68" y="55.301" fill="#6CC5C9" width="55" height="2"/><rect x="143.68" y="61.543" fill="#6CC5C9" width="55" height="2"/><rect x="143.68" y="68.137" fill="#6CC5C9" width="55" height="2"/><rect x="143.68" y="75.027" fill="#6CC5C9" width="25.516" height="14.484"/><rect x="173.39" y="75.027" fill="#6CC5C9" width="25.29" height="14.484"/><rect x="82.388" y="61.406" fill="#6CC5C9" width="25.803" height="2"/><rect x="82.388" y="67.648" fill="#6CC5C9" width="25.803" height="2"/><rect x="82.388" y="73.891" fill="#6CC5C9" width="25.803" height="2"/><rect x="82.388" y="80.133" fill="#6CC5C9" width="25.803" height="2"/><rect x="82.388" y="86.375" fill="#6CC5C9" width="25.803" height="2"/><rect x="112.526" y="61.406" fill="#6CC5C9" width="25.802" height="2"/><rect x="112.526" y="67.648" fill="#6CC5C9" width="25.802" height="2"/><rect x="112.526" y="73.891" fill="#6CC5C9" width="25.802" height="2"/><rect x="112.526" y="80.133" fill="#6CC5C9" width="25.802" height="2"/><rect x="112.526" y="86.375" fill="#6CC5C9" width="25.802" height="2"/><path fill="#6B7F7F" d="M87.888 67.75c1.65 0 3 1.35 3 3V123c0 1.65-1.35 3-3 3h-69.25c-1.65 0-3-1.35-3-3V70.75c0-1.65 1.35-3 3-3H87.888z"/><rect x="21.638" y="73.75" fill="#D6FDFF" width="60.75" height="46"/><circle fill="#D6FDFF" cx="86.138" cy="96.75" r="2"/><rect x="23.867" y="76.305" fill="#6CC5C9" width="25.803" height="10.5"/><rect x="23.867" y="94.305" fill="#6CC5C9" width="25.803" height="2"/><rect x="54.356" y="84.875" fill="#6CC5C9" width="25.803" height="2"/><rect x="54.356" y="76.305" fill="#6CC5C9" width="25.803" height="2"/><rect x="54.356" y="80.555" fill="#6CC5C9" width="25.803" height="2"/><rect x="23.867" y="99.111" fill="#6CC5C9" width="25.803" height="2"/><rect x="23.867" y="103.918" fill="#6CC5C9" width="25.803" height="2"/><rect x="54.356" y="94.305" fill="#6CC5C9" width="25.803" height="16.42"/><rect x="23.867" y="108.725" fill="#6CC5C9" width="25.803" height="2"/><rect x="23.867" y="113.531" fill="#6CC5C9" width="25.803" height="2"/><rect x="54.356" y="113.531" fill="#6CC5C9" width="25.803" height="2"/><path fill="#6B7F7F" d="M231.25 123c0 1.65-1.35 3-3 3H216c-1.65 0-3-1.35-3-3V93.25c0-1.65 1.35-3 3-3h12.25c1.65 0 3 1.35 3 3V123z"/><rect x="215" y="95.75" fill="#D6FDFF" width="14.75" height="24.5"/><circle fill="#D6FDFF" cx="222.375" cy="122.691" r="1.441"/><rect x="216.693" y="101.395" fill="#6CC5C9" width="11.303" height="10.5"/><rect x="216.693" y="113.415" fill="#6CC5C9" width="11.303" height="2"/><rect x="216.693" y="97.875" fill="#6CC5C9" width="11.303" height="2"/><rect x="216.693" y="116.935" fill="#6CC5C9" width="11.303" height="2"/></svg>