<svg xmlns="http://www.w3.org/2000/svg" version="1.1" x="0" y="0" width="50" height="50" viewBox="0" enable-background="new 0 0 50 50" xml:space="preserve"><g transform="translate(-282.07284,-395.84327)"><g transform="matrix(0.125,0,0,-0.125,280.82284,538.26355)"><path fill="#D6FDFF" d="M250.5 1067.3c-28.9-10.4-47.2-37.2-45.1-66.6l0.7-11.3l-11.6 1.4c-42.1 5.3-78.9 23.4-110.1 53.7l-15.3 15.1l-3.9-11.1c-8.3-24.7-3-50.9 14.3-68.5c9.3-9.7 7.2-11.1-8.8-5.3c-5.6 1.8-10.4 3.2-10.9 2.5c-1.6-1.6 3.9-22.7 8.3-31c6-11.6 18.3-22.9 31.7-29.6l11.3-5.3l-13.4-0.2c-12.9 0-13.4-0.2-12-5.1c4.6-15 22.9-31 43.3-37.9l14.4-4.9l-12.5-7.4c-18.5-10.6-40.2-16.6-62-17.1C58.6 838.3 50 837.4 50 836.7c0-2.3 28.2-15.3 44.6-20.4c49.3-15 107.8-8.6 151.8 17.1c31.2 18.3 62.4 54.6 77 89.7c7.9 18.7 15.7 52.9 15.7 69.3c0 10.7 0.7 12 13.6 24.7c7.6 7.5 14.8 15.5 16.1 17.8c2.3 4.4 2.1 4.4-9.7 0.5c-19.6-6.9-22.4-6-12.7 4.4c7.2 7.3 15.7 20.8 15.7 24.7c0 0.7-3.5-0.5-7.4-2.5c-4.2-2.3-13.4-5.8-20.4-7.9l-12.5-3.9l-11.3 7.6c-6.2 4.2-15 8.8-19.6 10.1c-11.7 3.2-29.7 2.8-40.4-0.9L250.5 1067.3z"/></g></g></svg>