<?xml version="1.0" encoding="utf-8"?>
<!-- Generator: Adobe Illustrator 16.0.0, SVG Export Plug-In . SVG Version: 6.00 Build 0)  -->
<!DOCTYPE svg PUBLIC "-//W3C//DTD SVG 1.1//EN" "http://www.w3.org/Graphics/SVG/1.1/DTD/svg11.dtd">
<svg version="1.1" id="Layer_1" xmlns="http://www.w3.org/2000/svg" xmlns:xlink="http://www.w3.org/1999/xlink" x="0px" y="0px"
	 width="50px" height="50px" viewBox="0 0 50 50" enable-background="new 0 0 50 50" xml:space="preserve">
<g>
	<path fill="#6CC5C9" d="M14.08,44.117V18.32H5.506v25.797H14.08z M9.794,14.796c2.989,0,4.851-1.981,4.851-4.457
		c-0.056-2.531-1.861-4.458-4.794-4.458C6.917,5.882,5,7.809,5,10.34c0,2.476,1.86,4.457,4.738,4.457H9.794L9.794,14.796z"/>
	<path fill="#6CC5C9" d="M18.826,44.117H27.4V29.711c0-0.771,0.056-1.541,0.282-2.092c0.619-1.541,2.03-3.136,4.399-3.136
		c3.103,0,4.344,2.366,4.344,5.833v13.801H45V29.326c0-7.924-4.23-11.611-9.872-11.611c-4.626,0-6.656,2.585-7.785,4.347H27.4V18.32
		h-8.574C18.938,20.741,18.826,44.117,18.826,44.117L18.826,44.117z"/>
</g>
</svg>
