<svg xmlns="http://www.w3.org/2000/svg" version="1.1" x="0px" y="0px" width="384.91px" height="100px" viewBox="54.051 17.805 384.91 100" enable-background="new 54.051 17.805 384.91 100" xml:space="preserve"><g enable-background="new    "><path fill="#6CC5C9" d="M55.477 73.511h5.473l7.639 23.544h0.456l7.582-23.544h4.333l7.81 23.544h0.456l7.24-23.544h5.301l-9.577 28.504h-6.898l-6.385-19.61h-0.342l-6.442 19.61h-7.069L55.477 73.511zM107.125 89.074c0.114 1.559 0.475 2.917 1.083 4.076c0.607 1.159 1.406 2.109 2.395 2.85c0.988 0.741 2.118 1.293 3.392 1.653c1.272 0.362 2.594 0.542 3.962 0.542c2.014 0 3.791-0.161 5.33-0.484s3.05-0.902 4.532-1.739l1.539 4.333c-0.951 0.456-1.853 0.826-2.708 1.111c-0.855 0.285-1.739 0.513-2.651 0.685c-0.912 0.171-1.891 0.294-2.936 0.37c-1.046 0.076-2.195 0.114-3.449 0.114c-2.585 0-4.865-0.342-6.841-1.026c-1.977-0.685-3.64-1.672-4.988-2.965c-1.349-1.291-2.375-2.85-3.078-4.674c-0.704-1.824-1.055-3.857-1.055-6.1c0-2.204 0.389-4.228 1.168-6.071c0.779-1.844 1.872-3.411 3.278-4.703c1.405-1.292 3.05-2.3 4.931-3.021c1.881-0.722 3.942-1.083 6.185-1.083c2.28 0 4.256 0.294 5.929 0.883c1.672 0.59 3.059 1.407 4.162 2.452c1.102 1.045 1.918 2.29 2.451 3.733c0.532 1.445 0.798 3.021 0.798 4.731c0 0.799-0.039 1.53-0.114 2.195c-0.077 0.665-0.209 1.378-0.399 2.138H107.125zM125.424 84.97c-0.038-2.833-0.739-4.843-2.103-6.029c-1.365-1.187-3.581-1.781-6.648-1.781c-1.138 0-2.265 0.163-3.382 0.488c-1.118 0.326-2.113 0.814-2.984 1.465s-1.601 1.464-2.188 2.44c-0.588 0.977-0.938 2.115-1.051 3.417H125.424zM138.593 60.4v15.05c1.447-0.874 2.961-1.511 4.542-1.91c1.58-0.398 3.342-0.598 5.286-0.598c4.648 0 8.181 1.216 10.6 3.648c2.419 2.433 3.628 6.062 3.628 10.888c0 2.28-0.428 4.353-1.285 6.214c-0.857 1.862-2.038 3.449-3.542 4.761c-1.503 1.311-3.284 2.328-5.34 3.05c-2.057 0.721-4.303 1.083-6.74 1.083c-1.333 0-2.551-0.058-3.656-0.171c-1.104-0.114-2.142-0.295-3.113-0.542c-0.971-0.247-1.913-0.561-2.827-0.94c-0.914-0.38-1.866-0.836-2.855-1.368V60.4H138.593zM138.593 96.649c0.646 0.305 1.244 0.554 1.795 0.744c0.551 0.191 1.092 0.345 1.625 0.459c0.532 0.114 1.102 0.201 1.71 0.258c0.607 0.058 1.292 0.086 2.052 0.086c3.496 0 6.28-0.907 8.352-2.723c2.071-1.814 3.107-4.5 3.107-8.054c0-3.438-0.741-6.008-2.223-7.708c-1.482-1.701-3.839-2.552-7.069-2.552c-1.824 0-3.506 0.211-5.045 0.631c-1.539 0.421-2.974 1.108-4.304 2.063V96.649zM208.54 60.4v40.589c-1.14 0.305-2.233 0.562-3.278 0.77c-1.046 0.21-2.119 0.371-3.221 0.485c-1.103 0.113-2.186 0.199-3.249 0.256c-1.064 0.058-2.395 0.086-3.991 0.086c-2.661 0-4.913-0.313-6.755-0.94c-1.844-0.628-3.42-1.568-4.731-2.822c-1.312-1.254-2.319-2.812-3.021-4.675c-0.704-1.861-1.055-4.027-1.055-6.499c0-2.203 0.371-4.218 1.112-6.042c0.741-1.824 1.776-3.373 3.107-4.646c1.33-1.272 2.916-2.261 4.76-2.965c1.843-0.702 3.867-1.054 6.071-1.054c1.976 0 3.639 0.152 4.988 0.456c1.349 0.304 2.669 0.874 3.962 1.71V60.4H208.54zM203.238 79.911c-2.387-1.834-5.21-2.752-8.468-2.752c-1.439 0-2.775 0.221-4.006 0.659c-1.232 0.44-2.303 1.09-3.211 1.949c-0.909 0.86-1.62 1.94-2.131 3.238c-0.511 1.299-0.767 2.828-0.767 4.585c0 1.835 0.265 3.431 0.795 4.786c0.531 1.356 1.279 2.475 2.246 3.353c0.966 0.879 2.102 1.538 3.41 1.978c1.307 0.44 2.737 0.659 4.291 0.659c1.591 0 2.964-0.066 4.121-0.2c1.155-0.134 2.396-0.373 3.722-0.718V79.911zM217.888 89.074c0.114 1.559 0.475 2.917 1.083 4.076c0.607 1.159 1.406 2.109 2.395 2.85c0.988 0.741 2.118 1.293 3.392 1.653c1.272 0.362 2.594 0.542 3.962 0.542c2.014 0 3.791-0.161 5.33-0.484s3.05-0.902 4.532-1.739l1.539 4.333c-0.951 0.456-1.853 0.826-2.708 1.111c-0.855 0.285-1.739 0.513-2.651 0.685c-0.912 0.171-1.891 0.294-2.936 0.37c-1.046 0.076-2.195 0.114-3.449 0.114c-2.585 0-4.865-0.342-6.841-1.026c-1.977-0.685-3.64-1.672-4.988-2.965c-1.349-1.291-2.375-2.85-3.078-4.674c-0.704-1.824-1.055-3.857-1.055-6.1c0-2.204 0.389-4.228 1.168-6.071c0.779-1.844 1.872-3.411 3.278-4.703c1.405-1.292 3.05-2.3 4.931-3.021c1.881-0.722 3.942-1.083 6.185-1.083c2.28 0 4.256 0.294 5.929 0.883c1.672 0.59 3.059 1.407 4.162 2.452c1.102 1.045 1.918 2.29 2.451 3.733c0.532 1.445 0.798 3.021 0.798 4.731c0 0.799-0.039 1.53-0.114 2.195c-0.077 0.665-0.209 1.378-0.399 2.138H217.888zM236.188 84.97c-0.038-2.833-0.739-4.843-2.103-6.029c-1.365-1.187-3.581-1.781-6.648-1.781c-1.138 0-2.265 0.163-3.382 0.488c-1.118 0.326-2.113 0.814-2.984 1.465s-1.601 1.464-2.188 2.44c-0.588 0.977-0.938 2.115-1.051 3.417H236.188zM247.532 73.511l9.919 24h0.228l10.261-24h5.473l-12.998 28.504h-6.157l-12.484-28.504H247.532zM279.343 89.074c0.114 1.559 0.475 2.917 1.083 4.076c0.607 1.159 1.406 2.109 2.395 2.85c0.987 0.741 2.118 1.293 3.392 1.653c1.273 0.362 2.594 0.542 3.962 0.542c2.015 0 3.791-0.161 5.33-0.484c1.54-0.323 3.051-0.902 4.532-1.739l1.539 4.333c-0.95 0.456-1.853 0.826-2.707 1.111c-0.855 0.285-1.739 0.513-2.651 0.685c-0.912 0.171-1.891 0.294-2.936 0.37c-1.046 0.076-2.195 0.114-3.449 0.114c-2.585 0-4.865-0.342-6.841-1.026c-1.977-0.685-3.64-1.672-4.988-2.965c-1.35-1.291-2.375-2.85-3.078-4.674c-0.704-1.824-1.055-3.857-1.055-6.1c0-2.204 0.39-4.228 1.169-6.071c0.778-1.844 1.871-3.411 3.277-4.703s3.05-2.3 4.932-3.021c1.881-0.722 3.942-1.083 6.185-1.083c2.281 0 4.257 0.294 5.93 0.883c1.672 0.59 3.059 1.407 4.161 2.452c1.102 1.045 1.919 2.29 2.451 3.733c0.532 1.445 0.798 3.021 0.798 4.731c0 0.799-0.038 1.53-0.113 2.195c-0.077 0.665-0.21 1.378-0.399 2.138H279.343zM297.643 84.97c-0.039-2.833-0.74-4.843-2.104-6.029c-1.364-1.187-3.581-1.781-6.648-1.781c-1.138 0-2.265 0.163-3.382 0.488c-1.118 0.326-2.113 0.814-2.984 1.465s-1.601 1.464-2.188 2.44c-0.588 0.977-0.938 2.115-1.051 3.417H297.643zM310.754 60.4v33.178c0 1.407 0.294 2.404 0.884 2.993c0.589 0.59 1.682 0.884 3.277 0.884v4.789c-0.228 0.037-0.456 0.065-0.684 0.085c-0.229 0.019-0.456 0.028-0.685 0.028c-1.521 0-2.793-0.219-3.819-0.655s-1.853-1.055-2.479-1.853c-0.627-0.799-1.074-1.776-1.34-2.937c-0.267-1.158-0.399-2.46-0.399-3.904V60.4H310.754zM347.409 87.763c0 2.28-0.418 4.333-1.252 6.157c-0.835 1.824-1.964 3.383-3.386 4.674c-1.423 1.293-3.102 2.28-5.036 2.965s-4.003 1.026-6.202 1.026c-2.2 0-4.269-0.342-6.203-1.026c-1.936-0.685-3.614-1.672-5.037-2.965c-1.422-1.291-2.551-2.85-3.385-4.674c-0.835-1.824-1.252-3.877-1.252-6.157s0.417-4.332 1.252-6.156c0.834-1.824 1.963-3.383 3.385-4.675c1.423-1.292 3.102-2.28 5.037-2.965c1.935-0.684 4.003-1.025 6.203-1.025c2.199 0 4.268 0.342 6.202 1.025c1.935 0.685 3.613 1.673 5.036 2.965c1.422 1.292 2.551 2.851 3.386 4.675C346.991 83.431 347.409 85.483 347.409 87.763zM320.787 87.763c0 3.289 0.952 5.878 2.857 7.769c1.905 1.89 4.534 2.835 7.889 2.835c3.353 0 5.981-0.945 7.887-2.835c1.905-1.891 2.858-4.479 2.858-7.769c0-3.288-0.953-5.878-2.858-7.768c-1.905-1.891-4.534-2.836-7.887-2.836c-3.354 0-5.983 0.945-7.889 2.836C321.739 81.885 320.787 84.475 320.787 87.763zM351.342 74.594c1.103-0.265 2.157-0.503 3.164-0.712s2.024-0.38 3.05-0.514c1.026-0.133 2.09-0.236 3.192-0.313c1.103-0.075 2.28-0.113 3.535-0.113c5.13 0 9.044 1.311 11.743 3.933c2.698 2.623 4.048 6.271 4.048 10.946c0 2.166-0.305 4.152-0.912 5.957c-0.608 1.806-1.511 3.363-2.708 4.675c-1.197 1.311-2.718 2.328-4.561 3.05c-1.844 0.721-3.981 1.083-6.414 1.083c-1.938 0-3.572-0.2-4.902-0.599c-1.33-0.399-2.642-1.092-3.934-2.081v15.221h-5.302V74.594zM356.644 95.06c1.368 1.179 2.755 1.995 4.162 2.451c1.405 0.456 2.964 0.685 4.674 0.685c2.889 0 5.159-0.902 6.812-2.708c1.653-1.805 2.48-4.342 2.48-7.61c0-3.572-0.922-6.251-2.766-8.038c-1.844-1.786-4.418-2.68-7.724-2.68c-0.875 0-1.645 0.02-2.31 0.058s-1.292 0.104-1.881 0.199c-0.59 0.096-1.16 0.209-1.71 0.342c-0.552 0.134-1.132 0.295-1.739 0.484V95.06zM387.997 89.074c0.114 1.559 0.475 2.917 1.083 4.076c0.607 1.159 1.406 2.109 2.395 2.85c0.987 0.741 2.118 1.293 3.392 1.653c1.273 0.362 2.594 0.542 3.962 0.542c2.015 0 3.791-0.161 5.33-0.484c1.54-0.323 3.051-0.902 4.532-1.739l1.539 4.333c-0.95 0.456-1.853 0.826-2.707 1.111c-0.855 0.285-1.739 0.513-2.651 0.685c-0.912 0.171-1.891 0.294-2.936 0.37c-1.046 0.076-2.195 0.114-3.449 0.114c-2.585 0-4.865-0.342-6.841-1.026c-1.977-0.685-3.64-1.672-4.988-2.965c-1.35-1.291-2.375-2.85-3.078-4.674c-0.704-1.824-1.055-3.857-1.055-6.1c0-2.204 0.39-4.228 1.169-6.071c0.778-1.844 1.871-3.411 3.277-4.703s3.05-2.3 4.932-3.021c1.881-0.722 3.942-1.083 6.185-1.083c2.281 0 4.257 0.294 5.93 0.883c1.672 0.59 3.059 1.407 4.161 2.452c1.102 1.045 1.919 2.29 2.451 3.733c0.532 1.445 0.798 3.021 0.798 4.731c0 0.799-0.038 1.53-0.113 2.195c-0.077 0.665-0.21 1.378-0.399 2.138H387.997zM406.297 84.97c-0.039-2.833-0.74-4.843-2.104-6.029c-1.364-1.187-3.581-1.781-6.648-1.781c-1.138 0-2.265 0.163-3.382 0.488c-1.118 0.326-2.113 0.814-2.984 1.465s-1.601 1.464-2.188 2.44c-0.588 0.977-0.938 2.115-1.051 3.417H406.297zM419.921 73.511l0.342 4.504c1.368-1.824 2.851-3.126 4.446-3.905c1.597-0.778 3.421-1.168 5.473-1.168c1.976 0 3.629 0.291 4.96 0.872c1.33 0.582 2.603 1.642 3.819 3.18l-3.591 3.245c-0.799-0.988-1.692-1.72-2.68-2.195c-0.989-0.475-2.015-0.713-3.078-0.713c-2.129 0-3.858 0.42-5.188 1.258c-1.33 0.839-2.604 2.114-3.819 3.828v19.599h-5.302V73.511H419.921z"/></g><path fill="#D6FDFF" d="M55.47 31.189l2.812-1.617l3.019-4.248l1.282 0.188v4.511h8.229l-0.124 2.895l-8.105-0.338v9.888c0 1.429 0.358 2.444 1.075 3.045c0.717 0.602 1.64 0.902 2.771 0.902c0.91 0 1.729-0.113 2.46-0.338c0.73-0.226 1.481-0.551 2.254-0.978l1.241 2.519c-0.855 0.552-1.786 0.953-2.792 1.203c-1.007 0.25-2.199 0.376-3.577 0.376c-2.372 0-4.184-0.564-5.438-1.692c-1.255-1.128-1.881-2.794-1.881-5v-9.587l-3.226-0.414V31.189zM96.66 39.423c0 1.504-0.303 2.857-0.909 4.061s-1.424 2.231-2.456 3.083c-1.032 0.853-2.25 1.504-3.653 1.955c-1.404 0.451-2.903 0.677-4.5 0.677c-1.596 0-3.096-0.226-4.5-0.677c-1.403-0.451-2.621-1.103-3.653-1.955c-1.032-0.852-1.851-1.879-2.456-3.083s-0.908-2.557-0.908-4.061s0.302-2.857 0.908-4.06s1.424-2.23 2.456-3.083c1.032-0.852 2.25-1.504 3.653-1.955c1.404-0.451 2.904-0.677 4.5-0.677c1.596 0 3.096 0.226 4.5 0.677c1.403 0.451 2.622 1.104 3.653 1.955c1.032 0.853 1.851 1.88 2.456 3.083S96.66 37.919 96.66 39.423zM77.347 39.423c0 2.169 0.691 3.876 2.073 5.123c1.382 1.247 3.29 1.87 5.722 1.87c2.432 0 4.34-0.623 5.722-1.87c1.382-1.247 2.073-2.954 2.073-5.123c0-2.168-0.691-3.876-2.073-5.123c-1.382-1.246-3.29-1.87-5.722-1.87c-2.433 0-4.34 0.624-5.722 1.87C78.038 35.546 77.347 37.254 77.347 39.423zM104.393 30.024l0.249 2.97c0.992-1.203 2.088-2.061 3.288-2.575c1.199-0.514 2.543-0.771 4.032-0.771c3.556 0 5.968 1.128 7.237 3.384c0.993-1.077 2.15-1.911 3.474-2.5c1.324-0.589 2.785-0.884 4.384-0.884c2.867 0 4.976 0.708 6.327 2.125c1.351 1.416 2.026 3.453 2.026 6.109v10.94h-3.846V37.869c0-0.825-0.069-1.562-0.207-2.213c-0.138-0.649-0.379-1.206-0.724-1.669s-0.806-0.819-1.385-1.069c-0.579-0.25-1.31-0.375-2.192-0.375c-1.571 0-2.888 0.269-3.949 0.807c-1.062 0.538-2.062 1.332-2.999 2.381c0.055 0.35 0.104 0.7 0.145 1.05s0.062 0.726 0.062 1.125v10.915h-3.846V37.869c0-0.825-0.069-1.562-0.207-2.213c-0.138-0.649-0.379-1.206-0.724-1.669c-0.345-0.463-0.807-0.819-1.386-1.069c-0.579-0.25-1.31-0.375-2.191-0.375c-1.627 0-2.971 0.275-4.032 0.825c-1.062 0.551-2.075 1.388-3.04 2.513v12.94h-3.846V30.024H104.393zM144.134 30.024l0.249 2.97c0.992-1.203 2.088-2.061 3.288-2.575c1.199-0.514 2.543-0.771 4.032-0.771c3.556 0 5.968 1.128 7.237 3.384c0.993-1.077 2.15-1.911 3.474-2.5c1.324-0.589 2.785-0.884 4.384-0.884c2.867 0 4.976 0.708 6.327 2.125c1.351 1.416 2.026 3.453 2.026 6.109v10.94h-3.846V37.869c0-0.825-0.069-1.562-0.207-2.213c-0.138-0.649-0.379-1.206-0.724-1.669s-0.806-0.819-1.385-1.069c-0.579-0.25-1.31-0.375-2.192-0.375c-1.571 0-2.888 0.269-3.949 0.807c-1.062 0.538-2.062 1.332-2.999 2.381c0.055 0.35 0.104 0.7 0.145 1.05s0.062 0.726 0.062 1.125v10.915h-3.846V37.869c0-0.825-0.069-1.562-0.207-2.213c-0.138-0.649-0.379-1.206-0.724-1.669c-0.345-0.463-0.807-0.819-1.386-1.069c-0.579-0.25-1.31-0.375-2.191-0.375c-1.627 0-2.971 0.275-4.032 0.825c-1.062 0.551-2.075 1.388-3.04 2.513v12.94h-3.846V30.024H144.134zM181.478 30.024l7.981 15.113h0.166l6.162-15.113h4.136l-10.173 22.407c-0.552 1.203-1.42 2.148-2.605 2.838c-1.186 0.689-2.481 1.034-3.887 1.034c-0.524 0-0.979-0.038-1.365-0.113c-0.387-0.075-0.841-0.201-1.365-0.376l0.579-2.707c0.606 0.125 1.144 0.188 1.613 0.188c0.965 0 1.799-0.182 2.502-0.545c0.703-0.364 1.289-1.059 1.757-2.086l0.745-1.692l-10.504-18.948H181.478zM217.208 30.024v-1.24c0-1.078 0.186-2.068 0.559-2.97c0.372-0.902 0.902-1.686 1.592-2.35c0.689-0.664 1.53-1.178 2.523-1.542c0.992-0.363 2.109-0.545 3.35-0.545c1.378 0 2.578 0.119 3.598 0.357c1.02 0.238 2.04 0.658 3.06 1.259l-1.861 2.745c-0.717-0.451-1.4-0.79-2.047-1.015c-0.648-0.226-1.399-0.338-2.254-0.338c-1.709 0-2.916 0.389-3.618 1.166c-0.703 0.777-1.055 1.817-1.055 3.121v1.353h11.662v18.798h-3.846V32.956l-7.816-0.263v16.128h-3.846V32.919l-3.598-0.451v-2.444H217.208zM252.194 33.52c-1.075-0.451-2.103-0.758-3.081-0.921c-0.979-0.163-2.033-0.245-3.164-0.245c-1.819 0-3.136 0.232-3.949 0.696c-0.813 0.464-1.22 1.059-1.22 1.786c0 0.501 0.138 0.902 0.414 1.203c0.275 0.301 0.655 0.545 1.137 0.733s1.061 0.333 1.737 0.433c0.675 0.1 1.412 0.188 2.212 0.263c1.295 0.126 2.453 0.32 3.474 0.583c1.02 0.263 1.875 0.627 2.564 1.09c0.689 0.464 1.213 1.047 1.572 1.748c0.358 0.702 0.538 1.554 0.538 2.557c0 1.955-0.883 3.402-2.647 4.342c-1.765 0.94-4.163 1.41-7.196 1.41c-1.517 0-2.847-0.094-3.991-0.282c-1.144-0.188-2.323-0.52-3.536-0.996l0.951-2.857c2.04 0.878 4.177 1.316 6.41 1.316c4.273 0 6.41-0.99 6.41-2.97c0-0.501-0.097-0.915-0.29-1.241c-0.193-0.326-0.51-0.589-0.951-0.79c-0.441-0.2-1.02-0.363-1.737-0.489c-0.717-0.125-1.613-0.238-2.688-0.338c-2.702-0.25-4.714-0.783-6.038-1.598c-1.324-0.814-1.985-2.099-1.985-3.854c0-0.752 0.179-1.46 0.538-2.124c0.358-0.664 0.903-1.241 1.634-1.729c0.73-0.489 1.654-0.877 2.771-1.166c1.117-0.288 2.419-0.433 3.908-0.433c0.275 0 0.544 0 0.806 0c0.262 0 0.517 0.013 0.765 0.038c-0.193-0.375-0.338-0.795-0.434-1.259c-0.097-0.463-0.145-0.996-0.145-1.598c0-0.877 0.186-1.679 0.558-2.406c0.372-0.727 0.896-1.354 1.571-1.88c0.675-0.526 1.475-0.933 2.399-1.222c0.923-0.288 1.937-0.432 3.04-0.432c1.295 0 2.46 0.082 3.494 0.244c1.034 0.164 2.13 0.433 3.288 0.808v10.79c0.964-1.103 2.102-1.892 3.411-2.369c1.31-0.476 2.668-0.714 4.074-0.714c2.866 0 5.01 0.708 6.431 2.125c1.419 1.416 2.13 3.453 2.13 6.109v10.94h-3.847V37.844c0-1.654-0.345-2.957-1.033-3.91c-0.689-0.952-1.917-1.429-3.681-1.429c-1.545 0-2.93 0.276-4.156 0.827c-1.228 0.552-2.337 1.379-3.329 2.481v13.008h-3.846V24.009c-1.048-0.275-2.137-0.414-3.267-0.414c-1.269 0-2.248 0.295-2.936 0.884c-0.689 0.589-1.034 1.397-1.034 2.425c0 0.877 0.221 1.629 0.662 2.256s1.268 1.178 2.481 1.654L252.194 33.52zM285.484 40.287c0.083 1.028 0.345 1.924 0.786 2.688c0.44 0.765 1.02 1.391 1.736 1.88s1.537 0.853 2.461 1.09c0.924 0.238 1.882 0.357 2.874 0.357c1.461 0 2.75-0.106 3.867-0.319c1.116-0.213 2.212-0.595 3.287-1.146l1.117 2.857c-0.689 0.301-1.345 0.545-1.965 0.733s-1.261 0.338-1.923 0.451c-0.662 0.113-1.372 0.194-2.13 0.245c-0.759 0.05-1.592 0.075-2.502 0.075c-1.875 0-3.529-0.226-4.963-0.677s-2.64-1.103-3.618-1.955c-0.979-0.852-1.724-1.879-2.233-3.083s-0.765-2.544-0.765-4.023c0-1.453 0.282-2.788 0.848-4.004c0.564-1.215 1.357-2.249 2.378-3.102c1.02-0.852 2.213-1.516 3.577-1.993c1.364-0.476 2.86-0.714 4.487-0.714c1.654 0 3.087 0.195 4.301 0.583c1.213 0.389 2.219 0.928 3.019 1.617c0.8 0.689 1.392 1.51 1.778 2.462c0.386 0.953 0.579 1.993 0.579 3.12c0 0.526-0.027 1.009-0.083 1.448s-0.151 0.909-0.289 1.41H285.484zM298.76 37.58c-0.028-1.868-0.536-3.194-1.525-3.976c-0.99-0.782-2.598-1.174-4.823-1.174c-0.825 0-1.644 0.107-2.454 0.322c-0.811 0.215-1.532 0.537-2.164 0.966c-0.632 0.43-1.161 0.966-1.587 1.61c-0.427 0.644-0.681 1.395-0.763 2.253H298.76zM310.173 30.024l0.248 2.97c0.992-1.203 2.067-2.061 3.226-2.575c1.158-0.514 2.481-0.771 3.97-0.771c1.434 0 2.633 0.192 3.598 0.576c0.965 0.384 1.889 1.083 2.771 2.097l-2.605 2.14c-0.579-0.651-1.228-1.134-1.943-1.447c-0.718-0.313-1.462-0.47-2.233-0.47c-1.545 0-2.799 0.277-3.764 0.83s-1.889 1.394-2.771 2.524v12.925h-3.846V30.024H310.173z"/></svg>