<svg xmlns="http://www.w3.org/2000/svg" version="1.1" x="0px" y="0px" width="192.454px" height="50px" viewBox="150.279 42.806 192.454 50" enable-background="new 150.279 42.806 192.454 50" xml:space="preserve"><g enable-background="new    "><path fill="#6CC5C9" d="M150.992 70.658h2.736l3.82 11.772h0.228l3.791-11.772h2.166l3.905 11.772h0.228l3.62-11.772h2.651l-4.789 14.252h-3.449l-3.192-9.806h-0.171l-3.221 9.806h-3.535L150.992 70.658zM176.816 78.44c0.057 0.78 0.237 1.459 0.542 2.038c0.304 0.58 0.703 1.055 1.197 1.426c0.494 0.37 1.059 0.646 1.696 0.826S181.547 83 182.231 83c1.007 0 1.896-0.08 2.665-0.242c0.77-0.161 1.525-0.451 2.266-0.869l0.77 2.166c-0.475 0.229-0.926 0.414-1.354 0.557c-0.427 0.142-0.869 0.256-1.325 0.342c-0.456 0.085-0.945 0.146-1.468 0.186c-0.523 0.037-1.098 0.057-1.725 0.057c-1.292 0-2.433-0.171-3.42-0.514c-0.988-0.342-1.82-0.836-2.494-1.481c-0.675-0.646-1.188-1.426-1.539-2.338c-0.352-0.912-0.527-1.928-0.527-3.05c0-1.102 0.195-2.113 0.584-3.035c0.389-0.922 0.936-1.705 1.639-2.352c0.703-0.646 1.525-1.149 2.466-1.511c0.94-0.36 1.971-0.542 3.092-0.542c1.14 0 2.128 0.147 2.964 0.442c0.836 0.295 1.53 0.703 2.081 1.226c0.551 0.522 0.959 1.145 1.226 1.867c0.266 0.722 0.399 1.511 0.399 2.365c0 0.399-0.019 0.766-0.057 1.098c-0.038 0.333-0.104 0.688-0.199 1.068H176.816zM185.965 76.388c-0.019-1.416-0.37-2.422-1.051-3.015c-0.682-0.594-1.791-0.891-3.324-0.891c-0.569 0-1.133 0.082-1.691 0.244c-0.559 0.163-1.057 0.407-1.492 0.732s-0.8 0.732-1.094 1.22c-0.294 0.488-0.469 1.059-0.525 1.709H185.965zM192.55 64.103v7.525c0.724-0.438 1.481-0.756 2.271-0.955c0.79-0.199 1.671-0.3 2.643-0.3c2.324 0 4.09 0.608 5.3 1.824c1.209 1.217 1.814 3.031 1.814 5.444c0 1.141-0.214 2.176-0.643 3.107c-0.428 0.931-1.019 1.724-1.771 2.38c-0.752 0.655-1.642 1.164-2.67 1.524c-1.028 0.361-2.152 0.542-3.37 0.542c-0.667 0-1.276-0.028-1.828-0.086c-0.552-0.057-1.071-0.147-1.556-0.271c-0.486-0.123-0.957-0.28-1.414-0.471c-0.457-0.189-0.933-0.417-1.428-0.684V64.103H192.55zM192.55 82.227c0.323 0.153 0.622 0.277 0.898 0.373c0.275 0.096 0.546 0.172 0.812 0.229c0.266 0.058 0.551 0.101 0.855 0.13c0.304 0.028 0.646 0.042 1.026 0.042c1.748 0 3.14-0.453 4.175-1.36c1.036-0.908 1.554-2.25 1.554-4.027c0-1.719-0.371-3.004-1.112-3.854c-0.741-0.85-1.919-1.275-3.534-1.275c-0.912 0-1.753 0.105-2.522 0.315c-0.77 0.21-1.487 0.554-2.152 1.031V82.227zM227.523 64.103v20.295c-0.57 0.152-1.117 0.28-1.639 0.385c-0.523 0.104-1.06 0.185-1.61 0.242c-0.551 0.057-1.093 0.1-1.625 0.128c-0.532 0.028-1.197 0.043-1.996 0.043c-1.33 0-2.456-0.157-3.377-0.471c-0.922-0.313-1.71-0.783-2.366-1.411c-0.656-0.627-1.159-1.405-1.511-2.337c-0.352-0.931-0.527-2.014-0.527-3.249c0-1.103 0.185-2.109 0.556-3.021s0.888-1.687 1.554-2.323c0.665-0.637 1.458-1.13 2.38-1.482c0.921-0.352 1.934-0.527 3.036-0.527c0.988 0 1.819 0.076 2.494 0.229c0.674 0.152 1.334 0.438 1.981 0.854v-7.354H227.523zM224.873 73.859c-1.194-0.917-2.605-1.376-4.234-1.376c-0.719 0-1.388 0.11-2.003 0.33c-0.616 0.22-1.151 0.544-1.605 0.975c-0.455 0.43-0.81 0.97-1.066 1.619s-0.383 1.413-0.383 2.292c0 0.918 0.132 1.715 0.397 2.393c0.266 0.679 0.64 1.237 1.123 1.677c0.482 0.439 1.051 0.77 1.705 0.989c0.653 0.22 1.369 0.329 2.146 0.329c0.795 0 1.482-0.033 2.06-0.101c0.578-0.066 1.198-0.186 1.861-0.358V73.859zM232.198 78.44c0.057 0.78 0.237 1.459 0.542 2.038c0.304 0.58 0.703 1.055 1.197 1.426c0.494 0.37 1.059 0.646 1.696 0.826S236.929 83 237.613 83c1.007 0 1.896-0.08 2.665-0.242c0.77-0.161 1.525-0.451 2.266-0.869l0.77 2.166c-0.475 0.229-0.926 0.414-1.354 0.557c-0.427 0.142-0.869 0.256-1.325 0.342c-0.456 0.085-0.945 0.146-1.468 0.186c-0.523 0.037-1.098 0.057-1.725 0.057c-1.292 0-2.433-0.171-3.42-0.514c-0.988-0.342-1.82-0.836-2.494-1.481c-0.675-0.646-1.188-1.426-1.539-2.338c-0.352-0.912-0.527-1.928-0.527-3.05c0-1.102 0.195-2.113 0.584-3.035c0.389-0.922 0.936-1.705 1.639-2.352c0.703-0.646 1.525-1.149 2.466-1.511c0.94-0.36 1.971-0.542 3.092-0.542c1.14 0 2.128 0.147 2.964 0.442c0.836 0.295 1.53 0.703 2.081 1.226c0.551 0.522 0.959 1.145 1.226 1.867c0.266 0.722 0.399 1.511 0.399 2.365c0 0.399-0.019 0.766-0.057 1.098c-0.038 0.333-0.104 0.688-0.199 1.068H232.198zM241.347 76.388c-0.019-1.416-0.37-2.422-1.051-3.015c-0.682-0.594-1.791-0.891-3.324-0.891c-0.569 0-1.133 0.082-1.691 0.244c-0.559 0.163-1.057 0.407-1.492 0.732s-0.8 0.732-1.094 1.22c-0.294 0.488-0.469 1.059-0.525 1.709H241.347zM247.019 70.658l4.96 12h0.114l5.131-12h2.736l-6.499 14.252h-3.078l-6.243-14.252H247.019zM262.925 78.44c0.057 0.78 0.237 1.459 0.541 2.038c0.304 0.58 0.703 1.055 1.197 1.426c0.494 0.37 1.059 0.646 1.696 0.826c0.636 0.181 1.297 0.271 1.98 0.271c1.007 0 1.896-0.08 2.665-0.242c0.77-0.161 1.525-0.451 2.267-0.869l0.77 2.166c-0.476 0.229-0.927 0.414-1.354 0.557c-0.428 0.142-0.869 0.256-1.325 0.342c-0.456 0.085-0.945 0.146-1.468 0.186c-0.523 0.037-1.098 0.057-1.725 0.057c-1.292 0-2.433-0.171-3.42-0.514c-0.988-0.342-1.82-0.836-2.495-1.481c-0.675-0.646-1.188-1.426-1.539-2.338c-0.352-0.912-0.527-1.928-0.527-3.05c0-1.102 0.195-2.113 0.584-3.035c0.389-0.922 0.936-1.705 1.639-2.352c0.703-0.646 1.525-1.149 2.466-1.511c0.94-0.36 1.971-0.542 3.093-0.542c1.14 0 2.128 0.147 2.964 0.442s1.529 0.703 2.081 1.226c0.551 0.522 0.959 1.145 1.226 1.867c0.266 0.722 0.399 1.511 0.399 2.365c0 0.399-0.02 0.766-0.058 1.098c-0.038 0.333-0.104 0.688-0.199 1.068H262.925zM272.074 76.388c-0.02-1.416-0.37-2.422-1.052-3.015c-0.683-0.594-1.79-0.891-3.324-0.891c-0.568 0-1.133 0.082-1.691 0.244c-0.559 0.163-1.056 0.407-1.491 0.732s-0.801 0.732-1.095 1.22c-0.294 0.488-0.469 1.059-0.525 1.709H272.074zM278.63 64.103v16.589c0 0.703 0.147 1.202 0.442 1.497c0.294 0.294 0.841 0.441 1.639 0.441v2.395c-0.114 0.019-0.228 0.032-0.342 0.043c-0.114 0.009-0.229 0.014-0.342 0.014c-0.761 0-1.397-0.109-1.91-0.328c-0.513-0.218-0.927-0.527-1.24-0.926c-0.313-0.399-0.537-0.889-0.669-1.468c-0.134-0.58-0.2-1.23-0.2-1.953V64.103H278.63zM296.957 77.784c0 1.141-0.209 2.166-0.626 3.078c-0.418 0.912-0.981 1.691-1.693 2.338c-0.711 0.646-1.551 1.14-2.518 1.481c-0.968 0.343-2.001 0.514-3.102 0.514c-1.1 0-2.134-0.171-3.102-0.514c-0.967-0.342-1.807-0.836-2.518-1.481c-0.712-0.646-1.275-1.426-1.693-2.338c-0.417-0.912-0.625-1.938-0.625-3.078c0-1.14 0.208-2.166 0.625-3.078c0.418-0.912 0.981-1.691 1.693-2.338c0.711-0.646 1.551-1.14 2.518-1.481c0.968-0.343 2.002-0.514 3.102-0.514c1.101 0 2.134 0.171 3.102 0.514c0.967 0.342 1.807 0.836 2.518 1.481c0.712 0.646 1.275 1.426 1.693 2.338C296.748 75.618 296.957 76.645 296.957 77.784zM283.646 77.784c0 1.645 0.477 2.939 1.429 3.884c0.953 0.945 2.268 1.418 3.944 1.418s2.991-0.473 3.944-1.418c0.952-0.944 1.429-2.239 1.429-3.884s-0.477-2.938-1.429-3.884c-0.953-0.945-2.268-1.418-3.944-1.418s-2.991 0.473-3.944 1.418C284.122 74.846 283.646 76.14 283.646 77.784zM298.924 71.2c0.551-0.133 1.078-0.252 1.582-0.356c0.503-0.104 1.012-0.189 1.525-0.257c0.513-0.066 1.045-0.118 1.596-0.156s1.141-0.058 1.768-0.058c2.565 0 4.522 0.656 5.871 1.967c1.35 1.312 2.024 3.136 2.024 5.473c0 1.083-0.152 2.076-0.456 2.979c-0.305 0.903-0.756 1.682-1.354 2.338c-0.599 0.655-1.358 1.164-2.28 1.524c-0.922 0.361-1.99 0.542-3.206 0.542c-0.97 0-1.787-0.1-2.451-0.3c-0.666-0.199-1.321-0.546-1.967-1.04v7.61h-2.651V71.2zM301.575 81.433c0.684 0.589 1.377 0.998 2.08 1.226c0.703 0.229 1.482 0.342 2.338 0.342c1.443 0 2.579-0.451 3.406-1.354c0.826-0.902 1.239-2.171 1.239-3.806c0-1.785-0.461-3.125-1.382-4.019c-0.922-0.893-2.209-1.34-3.862-1.34c-0.438 0-0.822 0.01-1.154 0.028c-0.333 0.02-0.646 0.053-0.941 0.101c-0.294 0.047-0.579 0.104-0.854 0.171s-0.565 0.147-0.869 0.242V81.433zM317.252 78.44c0.057 0.78 0.237 1.459 0.541 2.038c0.304 0.58 0.703 1.055 1.197 1.426c0.494 0.37 1.059 0.646 1.696 0.826c0.636 0.181 1.297 0.271 1.98 0.271c1.007 0 1.896-0.08 2.665-0.242c0.77-0.161 1.525-0.451 2.267-0.869l0.77 2.166c-0.476 0.229-0.927 0.414-1.354 0.557c-0.428 0.142-0.869 0.256-1.325 0.342c-0.456 0.085-0.945 0.146-1.468 0.186c-0.523 0.037-1.098 0.057-1.725 0.057c-1.292 0-2.433-0.171-3.42-0.514c-0.988-0.342-1.82-0.836-2.494-1.481c-0.675-0.646-1.188-1.426-1.54-2.338s-0.526-1.928-0.526-3.05c0-1.102 0.194-2.113 0.584-3.035c0.389-0.922 0.936-1.705 1.639-2.352c0.703-0.646 1.525-1.149 2.466-1.511c0.94-0.36 1.971-0.542 3.093-0.542c1.14 0 2.128 0.147 2.964 0.442s1.529 0.703 2.081 1.226c0.551 0.522 0.959 1.145 1.226 1.867c0.266 0.722 0.399 1.511 0.399 2.365c0 0.399-0.02 0.766-0.058 1.098c-0.038 0.333-0.104 0.688-0.199 1.068H317.252zM326.401 76.388c-0.02-1.416-0.37-2.422-1.052-3.015c-0.683-0.594-1.79-0.891-3.324-0.891c-0.568 0-1.133 0.082-1.691 0.244c-0.559 0.163-1.056 0.407-1.491 0.732s-0.801 0.732-1.095 1.22c-0.294 0.488-0.469 1.059-0.525 1.709H326.401zM333.213 70.658l0.172 2.252c0.684-0.912 1.425-1.562 2.223-1.952s1.71-0.585 2.736-0.585c0.988 0 1.814 0.146 2.479 0.437s1.302 0.821 1.91 1.59l-1.796 1.622c-0.398-0.493-0.846-0.859-1.34-1.097s-1.007-0.356-1.539-0.356c-1.064 0-1.929 0.21-2.594 0.629s-1.302 1.057-1.909 1.913v9.8h-2.651V70.658H333.213z"/></g><path fill="#D6FDFF" d="M150.989 49.498l1.406-0.809l1.509-2.124l0.641 0.094v2.255h4.115l-0.062 1.448l-4.053-0.169v4.944c0 0.714 0.179 1.222 0.538 1.522c0.358 0.301 0.82 0.451 1.385 0.451c0.455 0 0.865-0.056 1.23-0.169c0.365-0.113 0.741-0.276 1.127-0.489l0.62 1.259c-0.427 0.276-0.893 0.477-1.396 0.602c-0.503 0.125-1.1 0.188-1.789 0.188c-1.186 0-2.092-0.281-2.719-0.845c-0.627-0.564-0.941-1.397-0.941-2.5v-4.793l-1.613-0.207V49.498zM171.583 53.615c0 0.752-0.151 1.428-0.454 2.03s-0.712 1.116-1.228 1.542c-0.516 0.426-1.125 0.752-1.827 0.978s-1.452 0.338-2.25 0.338c-0.798 0-1.548-0.112-2.25-0.338s-1.311-0.551-1.827-0.978c-0.516-0.426-0.925-0.94-1.228-1.542s-0.454-1.278-0.454-2.03s0.151-1.429 0.454-2.03s0.712-1.115 1.228-1.542c0.516-0.426 1.125-0.752 1.827-0.978s1.452-0.338 2.25-0.338c0.798 0 1.548 0.113 2.25 0.338s1.311 0.552 1.827 0.978c0.516 0.426 0.925 0.94 1.228 1.542S171.583 52.863 171.583 53.615zM161.927 53.615c0 1.084 0.345 1.938 1.037 2.562c0.691 0.623 1.645 0.935 2.861 0.935c1.216 0 2.169-0.312 2.861-0.935c0.691-0.624 1.037-1.478 1.037-2.562c0-1.084-0.346-1.938-1.037-2.562c-0.691-0.624-1.645-0.935-2.861-0.935c-1.217 0-2.17 0.312-2.861 0.935C162.272 51.676 161.927 52.53 161.927 53.615zM175.45 48.915l0.124 1.485c0.496-0.602 1.044-1.031 1.644-1.288s1.272-0.386 2.016-0.386c1.778 0 2.984 0.564 3.619 1.692c0.496-0.539 1.075-0.956 1.737-1.25s1.392-0.442 2.192-0.442c1.434 0 2.488 0.354 3.164 1.062c0.675 0.708 1.013 1.727 1.013 3.055v5.47h-1.923v-5.476c0-0.413-0.035-0.781-0.104-1.106c-0.069-0.325-0.189-0.603-0.362-0.834s-0.403-0.41-0.693-0.535s-0.655-0.188-1.096-0.188c-0.786 0-1.444 0.134-1.975 0.403c-0.531 0.269-1.031 0.666-1.499 1.19c0.027 0.175 0.051 0.35 0.072 0.525c0.021 0.175 0.031 0.362 0.031 0.562v5.458h-1.923v-5.476c0-0.413-0.035-0.781-0.104-1.106s-0.189-0.603-0.362-0.834s-0.403-0.41-0.692-0.535c-0.29-0.125-0.655-0.188-1.096-0.188c-0.813 0-1.485 0.138-2.016 0.413s-1.037 0.694-1.52 1.256v6.47h-1.923v-9.399H175.45zM195.321 48.915l0.124 1.485c0.496-0.602 1.044-1.031 1.644-1.288s1.272-0.386 2.016-0.386c1.778 0 2.984 0.564 3.619 1.692c0.496-0.539 1.075-0.956 1.737-1.25s1.392-0.442 2.192-0.442c1.434 0 2.488 0.354 3.164 1.062c0.675 0.708 1.013 1.727 1.013 3.055v5.47h-1.923v-5.476c0-0.413-0.035-0.781-0.104-1.106c-0.069-0.325-0.189-0.603-0.362-0.834s-0.403-0.41-0.693-0.535s-0.655-0.188-1.096-0.188c-0.786 0-1.444 0.134-1.975 0.403c-0.531 0.269-1.031 0.666-1.499 1.19c0.027 0.175 0.051 0.35 0.072 0.525c0.021 0.175 0.031 0.362 0.031 0.562v5.458h-1.923v-5.476c0-0.413-0.035-0.781-0.104-1.106s-0.189-0.603-0.362-0.834s-0.403-0.41-0.692-0.535c-0.29-0.125-0.655-0.188-1.096-0.188c-0.813 0-1.485 0.138-2.016 0.413s-1.037 0.694-1.52 1.256v6.47h-1.923v-9.399H195.321zM213.992 48.915l3.991 7.557h0.083l3.081-7.557h2.067l-5.086 11.204c-0.276 0.602-0.71 1.074-1.303 1.419c-0.593 0.345-1.241 0.517-1.944 0.517c-0.262 0-0.489-0.019-0.682-0.056c-0.193-0.038-0.421-0.101-0.683-0.188l0.29-1.354c0.303 0.062 0.572 0.095 0.807 0.095c0.482 0 0.899-0.092 1.251-0.273s0.644-0.529 0.879-1.043l0.372-0.846l-5.252-9.474H213.992zM231.857 48.915v-0.62c0-0.539 0.093-1.034 0.279-1.485s0.451-0.843 0.796-1.175s0.765-0.589 1.261-0.771c0.497-0.182 1.055-0.272 1.675-0.272c0.689 0 1.289 0.06 1.799 0.179c0.51 0.119 1.02 0.329 1.53 0.629l-0.93 1.373c-0.359-0.226-0.7-0.395-1.023-0.508c-0.324-0.113-0.7-0.169-1.127-0.169c-0.855 0-1.458 0.194-1.81 0.583c-0.352 0.389-0.527 0.909-0.527 1.56v0.677h5.831v9.399h-1.923v-7.933l-3.908-0.131v8.064h-1.923v-7.951l-1.799-0.226v-1.222H231.857zM249.351 50.663c-0.538-0.226-1.051-0.379-1.541-0.461c-0.489-0.081-1.017-0.122-1.582-0.122c-0.91 0-1.568 0.116-1.975 0.348c-0.407 0.232-0.61 0.53-0.61 0.893c0 0.251 0.069 0.451 0.207 0.602c0.137 0.15 0.327 0.272 0.568 0.367c0.241 0.094 0.531 0.166 0.869 0.216c0.337 0.05 0.706 0.094 1.106 0.132c0.648 0.063 1.227 0.16 1.737 0.292c0.51 0.131 0.938 0.313 1.282 0.545c0.344 0.232 0.606 0.523 0.786 0.874c0.179 0.351 0.269 0.777 0.269 1.278c0 0.978-0.441 1.701-1.324 2.171c-0.882 0.47-2.082 0.705-3.598 0.705c-0.758 0-1.423-0.047-1.995-0.141c-0.572-0.094-1.162-0.26-1.768-0.498l0.476-1.429c1.02 0.439 2.088 0.658 3.205 0.658c2.136 0 3.205-0.495 3.205-1.485c0-0.25-0.048-0.457-0.145-0.62c-0.097-0.163-0.255-0.294-0.476-0.395c-0.221-0.101-0.51-0.182-0.869-0.245c-0.358-0.062-0.806-0.119-1.344-0.169c-1.351-0.125-2.357-0.392-3.019-0.799c-0.662-0.407-0.992-1.049-0.992-1.927c0-0.375 0.089-0.729 0.269-1.062c0.179-0.332 0.451-0.62 0.817-0.865c0.365-0.244 0.827-0.438 1.385-0.583s1.209-0.216 1.954-0.216c0.138 0 0.272 0 0.403 0c0.131 0 0.258 0.007 0.382 0.019c-0.097-0.188-0.169-0.398-0.217-0.63c-0.048-0.231-0.072-0.498-0.072-0.799c0-0.438 0.093-0.839 0.279-1.203c0.186-0.363 0.448-0.677 0.786-0.94s0.737-0.466 1.199-0.611c0.462-0.144 0.968-0.216 1.52-0.216c0.647 0 1.23 0.041 1.747 0.123s1.065 0.216 1.644 0.404v5.395c0.482-0.551 1.051-0.946 1.706-1.184c0.655-0.238 1.334-0.357 2.037-0.357c1.434 0 2.505 0.354 3.215 1.062c0.71 0.708 1.065 1.727 1.065 3.055v5.47h-1.923v-5.489c0-0.827-0.172-1.479-0.517-1.955c-0.345-0.476-0.958-0.714-1.84-0.714c-0.772 0-1.465 0.138-2.078 0.414c-0.614 0.276-1.168 0.689-1.665 1.241v6.504h-1.923V45.907c-0.524-0.138-1.068-0.207-1.633-0.207c-0.634 0-1.124 0.147-1.468 0.442s-0.517 0.699-0.517 1.212c0 0.439 0.11 0.815 0.331 1.128c0.22 0.313 0.634 0.589 1.241 0.827L249.351 50.663zM265.996 54.047c0.041 0.514 0.172 0.962 0.393 1.344s0.51 0.695 0.868 0.94c0.358 0.244 0.769 0.426 1.23 0.545s0.94 0.179 1.438 0.179c0.73 0 1.375-0.053 1.933-0.16c0.559-0.106 1.106-0.297 1.645-0.573l0.558 1.429c-0.345 0.15-0.672 0.272-0.981 0.367c-0.311 0.094-0.631 0.169-0.962 0.226s-0.686 0.097-1.064 0.122c-0.38 0.025-0.797 0.037-1.251 0.037c-0.938 0-1.765-0.112-2.481-0.338s-1.32-0.551-1.81-0.978c-0.489-0.426-0.861-0.94-1.116-1.542c-0.256-0.602-0.383-1.271-0.383-2.011c0-0.727 0.142-1.394 0.424-2.002c0.282-0.607 0.679-1.125 1.188-1.551c0.511-0.426 1.106-0.758 1.789-0.996c0.683-0.238 1.43-0.357 2.243-0.357c0.827 0 1.544 0.097 2.15 0.292s1.109 0.464 1.51 0.808c0.399 0.345 0.696 0.755 0.89 1.231c0.192 0.477 0.289 0.996 0.289 1.56c0 0.263-0.014 0.505-0.041 0.724c-0.028 0.22-0.076 0.455-0.146 0.705H265.996zM272.633 52.693c-0.014-0.934-0.268-1.597-0.763-1.988c-0.495-0.392-1.299-0.587-2.411-0.587c-0.413 0-0.821 0.054-1.227 0.161c-0.406 0.107-0.767 0.269-1.083 0.483c-0.315 0.214-0.58 0.483-0.793 0.805c-0.214 0.322-0.341 0.697-0.382 1.126H272.633zM278.34 48.915l0.124 1.485c0.497-0.602 1.034-1.031 1.613-1.288s1.24-0.386 1.985-0.386c0.716 0 1.315 0.096 1.799 0.288c0.482 0.192 0.943 0.541 1.385 1.048l-1.303 1.07c-0.289-0.326-0.613-0.567-0.972-0.724s-0.73-0.235-1.116-0.235c-0.772 0-1.399 0.138-1.882 0.415s-0.944 0.697-1.386 1.262v6.462h-1.923v-9.399H278.34z"/></svg>